<svg id="visual" viewBox="0 0 960 540" width="960" height="540" xmlns="http://www.w3.org/2000/svg" xmlns:xlink="http://www.w3.org/1999/xlink" version="1.1"><g stroke-width="1" stroke-linejoin="bevel"><path d="M462 274.6L438.7 280.5L463.3 304.6Z" fill="#0153a4" stroke="#0153a4"></path><path d="M378.3 259.4L384.3 276.6L438.7 280.5Z" fill="#004081" stroke="#004081"></path><path d="M438.7 280.5L355.7 301.6L463.3 304.6Z" fill="#0153a4" stroke="#0153a4"></path><path d="M463.3 304.6L527 287.5L462 274.6Z" fill="#004c98" stroke="#004c98"></path><path d="M493 220.5L460.3 211.3L462 274.6Z" fill="#00468c" stroke="#00468c"></path><path d="M462 274.6L460.3 211.3L438.7 280.5Z" fill="#035fbc" stroke="#035fbc"></path><path d="M352.7 368.7L475.3 366.7L463.3 304.6Z" fill="#004081" stroke="#004081"></path><path d="M463.3 304.6L475.3 366.7L527 287.5Z" fill="#0466c8" stroke="#0466c8"></path><path d="M527 239.4L493 220.5L462 274.6Z" fill="#0153a4" stroke="#0153a4"></path><path d="M415.7 211.5L378.3 259.4L438.7 280.5Z" fill="#00346a" stroke="#00346a"></path><path d="M460.3 211.3L415.7 211.5L438.7 280.5Z" fill="#035fbc" stroke="#035fbc"></path><path d="M527 287.5L527 239.4L462 274.6Z" fill="#00468c" stroke="#00468c"></path><path d="M415.7 211.5L375.3 242.5L378.3 259.4Z" fill="#002855" stroke="#002855"></path><path d="M493 220.5L479.7 202.3L460.3 211.3Z" fill="#002e60" stroke="#002e60"></path><path d="M460.3 211.3L421 197.3L415.7 211.5Z" fill="#0153a4" stroke="#0153a4"></path><path d="M570.3 166.4L479.7 202.3L493 220.5Z" fill="#0159b0" stroke="#0159b0"></path><path d="M458.7 159.2L421 197.3L460.3 211.3Z" fill="#035fbc" stroke="#035fbc"></path><path d="M415.7 211.5L393 172.3L375.3 242.5Z" fill="#0466c8" stroke="#0466c8"></path><path d="M378.3 259.4L355.7 301.6L384.3 276.6Z" fill="#0159b0" stroke="#0159b0"></path><path d="M384.3 276.6L355.7 301.6L438.7 280.5Z" fill="#004081" stroke="#004081"></path><path d="M362 242.5L355.7 301.6L378.3 259.4Z" fill="#035fbc" stroke="#035fbc"></path><path d="M458.7 159.2L417.7 195.4L421 197.3Z" fill="#0159b0" stroke="#0159b0"></path><path d="M421 197.3L417.7 195.4L415.7 211.5Z" fill="#0159b0" stroke="#0159b0"></path><path d="M393 172.3L362 242.5L375.3 242.5Z" fill="#00468c" stroke="#00468c"></path><path d="M375.3 242.5L362 242.5L378.3 259.4Z" fill="#00346a" stroke="#00346a"></path><path d="M463 408.8L475 405.7L475.3 366.7Z" fill="#00346a" stroke="#00346a"></path><path d="M597.3 319.5L595 271.4L527 287.5Z" fill="#003a75" stroke="#003a75"></path><path d="M352.7 368.7L463 408.8L475.3 366.7Z" fill="#00468c" stroke="#00468c"></path><path d="M355.7 301.6L352.7 368.7L463.3 304.6Z" fill="#004081" stroke="#004081"></path><path d="M534.3 130.2L458.7 159.2L479.7 202.3Z" fill="#0153a4" stroke="#0153a4"></path><path d="M479.7 202.3L458.7 159.2L460.3 211.3Z" fill="#00346a" stroke="#00346a"></path><path d="M417.7 195.4L393 172.3L415.7 211.5Z" fill="#00346a" stroke="#00346a"></path><path d="M458.7 159.2L393 172.3L417.7 195.4Z" fill="#003a75" stroke="#003a75"></path><path d="M527 287.5L585.3 239.5L527 239.4Z" fill="#004081" stroke="#004081"></path><path d="M527 239.4L570.3 166.4L493 220.5Z" fill="#00346a" stroke="#00346a"></path><path d="M595 271.4L585.3 239.5L527 287.5Z" fill="#004081" stroke="#004081"></path><path d="M597.3 319.5L527 287.5L475.3 366.7Z" fill="#004c98" stroke="#004c98"></path><path d="M304 216.5L311 278.6L362 242.5Z" fill="#0153a4" stroke="#0153a4"></path><path d="M362 242.5L311 278.6L355.7 301.6Z" fill="#004081" stroke="#004081"></path><path d="M315.7 348.7L333.3 369.5L352.7 368.7Z" fill="#003a75" stroke="#003a75"></path><path d="M315.7 348.7L352.7 368.7L355.7 301.6Z" fill="#0159b0" stroke="#0159b0"></path><path d="M405 445.9L428.7 448.9L463 408.8Z" fill="#0466c8" stroke="#0466c8"></path><path d="M617 375.7L597.3 319.5L475.3 366.7Z" fill="#002855" stroke="#002855"></path><path d="M311.7 344.6L315.7 348.7L355.7 301.6Z" fill="#004c98" stroke="#004c98"></path><path d="M289.3 300.5L311.7 344.6L355.7 301.6Z" fill="#0466c8" stroke="#0466c8"></path><path d="M315.7 348.7L304.3 362.8L333.3 369.5Z" fill="#004081" stroke="#004081"></path><path d="M373.3 431.7L463 408.8L352.7 368.7Z" fill="#004c98" stroke="#004c98"></path><path d="M463 408.8L472.7 497.8L475 405.7Z" fill="#035fbc" stroke="#035fbc"></path><path d="M622.7 321.7L614.7 313.6L597.3 319.5Z" fill="#002855" stroke="#002855"></path><path d="M647.3 280.6L606.7 240.5L595 271.4Z" fill="#002e60" stroke="#002e60"></path><path d="M595 271.4L606.7 240.5L585.3 239.5Z" fill="#0466c8" stroke="#0466c8"></path><path d="M585.3 239.5L570.3 166.4L527 239.4Z" fill="#0466c8" stroke="#0466c8"></path><path d="M293 406.8L373.3 431.7L333.3 369.5Z" fill="#0466c8" stroke="#0466c8"></path><path d="M333.3 369.5L373.3 431.7L352.7 368.7Z" fill="#002e60" stroke="#002e60"></path><path d="M622.7 321.7L597.3 319.5L617 375.7Z" fill="#003a75" stroke="#003a75"></path><path d="M597.3 319.5L614.7 313.6L595 271.4Z" fill="#004081" stroke="#004081"></path><path d="M373.3 431.7L405 445.9L463 408.8Z" fill="#00346a" stroke="#00346a"></path><path d="M253.7 240.5L289.3 300.5L311 278.6Z" fill="#002855" stroke="#002855"></path><path d="M311 278.6L289.3 300.5L355.7 301.6Z" fill="#00346a" stroke="#00346a"></path><path d="M262.7 357.5L304.3 362.8L311.7 344.6Z" fill="#004081" stroke="#004081"></path><path d="M311.7 344.6L304.3 362.8L315.7 348.7Z" fill="#003a75" stroke="#003a75"></path><path d="M335.3 151.2L304 216.5L362 242.5Z" fill="#035fbc" stroke="#035fbc"></path><path d="M612 162.3L570.3 166.4L585.3 239.5Z" fill="#0466c8" stroke="#0466c8"></path><path d="M617 375.7L475.3 366.7L475 405.7Z" fill="#004081" stroke="#004081"></path><path d="M614.7 313.6L647.3 280.6L595 271.4Z" fill="#00468c" stroke="#00468c"></path><path d="M570.3 166.4L534.3 130.2L479.7 202.3Z" fill="#035fbc" stroke="#035fbc"></path><path d="M354 8.1L335.3 151.2L393 172.3Z" fill="#0153a4" stroke="#0153a4"></path><path d="M440.7 0L393 172.3L458.7 159.2Z" fill="#002e60" stroke="#002e60"></path><path d="M393 172.3L335.3 151.2L362 242.5Z" fill="#00468c" stroke="#00468c"></path><path d="M262.7 357.5L293.3 380.7L304.3 362.8Z" fill="#0159b0" stroke="#0159b0"></path><path d="M304.3 362.8L293.3 380.7L333.3 369.5Z" fill="#004081" stroke="#004081"></path><path d="M581.7 491.8L617 375.7L475 405.7Z" fill="#0153a4" stroke="#0153a4"></path><path d="M622.7 321.7L647.3 280.6L614.7 313.6Z" fill="#0153a4" stroke="#0153a4"></path><path d="M606.7 240.5L612 162.3L585.3 239.5Z" fill="#00468c" stroke="#00468c"></path><path d="M659 312.5L647.3 280.6L622.7 321.7Z" fill="#00468c" stroke="#00468c"></path><path d="M293 406.8L369 465.7L373.3 431.7Z" fill="#00468c" stroke="#00468c"></path><path d="M373.3 431.7L369 465.7L405 445.9Z" fill="#00346a" stroke="#00346a"></path><path d="M405 445.9L455.3 509.8L428.7 448.9Z" fill="#0153a4" stroke="#0153a4"></path><path d="M257.3 417.6L293 406.8L293.3 380.7Z" fill="#004c98" stroke="#004c98"></path><path d="M293.3 380.7L293 406.8L333.3 369.5Z" fill="#0153a4" stroke="#0153a4"></path><path d="M289.3 300.5L262.7 357.5L311.7 344.6Z" fill="#0153a4" stroke="#0153a4"></path><path d="M208 327.5L262.7 357.5L289.3 300.5Z" fill="#002e60" stroke="#002e60"></path><path d="M629.7 166.5L612 162.3L606.7 240.5Z" fill="#00468c" stroke="#00468c"></path><path d="M570.3 166.4L617 139.2L534.3 130.2Z" fill="#003a75" stroke="#003a75"></path><path d="M241.3 195.3L253.7 240.5L304 216.5Z" fill="#0159b0" stroke="#0159b0"></path><path d="M304 216.5L253.7 240.5L311 278.6Z" fill="#004c98" stroke="#004c98"></path><path d="M659 316.6L659 312.5L622.7 321.7Z" fill="#003a75" stroke="#003a75"></path><path d="M694.3 214.4L629.7 166.5L606.7 240.5Z" fill="#002e60" stroke="#002e60"></path><path d="M243.7 99.3L305.3 145.3L335.3 15.1Z" fill="#004c98" stroke="#004c98"></path><path d="M335.3 151.2L305.3 145.3L304 216.5Z" fill="#035fbc" stroke="#035fbc"></path><path d="M617 375.7L659 316.6L622.7 321.7Z" fill="#00346a" stroke="#00346a"></path><path d="M455.3 509.8L472.7 497.8L428.7 448.9Z" fill="#00468c" stroke="#00468c"></path><path d="M428.7 448.9L472.7 497.8L463 408.8Z" fill="#0466c8" stroke="#0466c8"></path><path d="M635.3 156.2L629.7 166.5L694.3 214.4Z" fill="#003a75" stroke="#003a75"></path><path d="M612 162.3L617 139.2L570.3 166.4Z" fill="#004c98" stroke="#004c98"></path><path d="M305.3 145.3L274 163.4L304 216.5Z" fill="#003a75" stroke="#003a75"></path><path d="M369 465.7L455.3 509.8L405 445.9Z" fill="#0153a4" stroke="#0153a4"></path><path d="M629.7 147.4L617 139.2L612 162.3Z" fill="#0466c8" stroke="#0466c8"></path><path d="M694.3 214.4L606.7 240.5L647.3 280.6Z" fill="#0153a4" stroke="#0153a4"></path><path d="M629.7 166.5L629.7 147.4L612 162.3Z" fill="#00468c" stroke="#00468c"></path><path d="M635.3 156.2L629.7 147.4L629.7 166.5Z" fill="#00468c" stroke="#00468c"></path><path d="M274 163.4L241.3 195.3L304 216.5Z" fill="#035fbc" stroke="#035fbc"></path><path d="M201.3 269.5L208 327.5L289.3 300.5Z" fill="#003a75" stroke="#003a75"></path><path d="M222.3 430.8L257.3 417.6L262.7 357.5Z" fill="#00346a" stroke="#00346a"></path><path d="M262.7 357.5L257.3 417.6L293.3 380.7Z" fill="#002e60" stroke="#002e60"></path><path d="M293 406.8L267.7 466.9L369 465.7Z" fill="#004081" stroke="#004081"></path><path d="M376.7 540L459.3 540L455.3 509.8Z" fill="#00346a" stroke="#00346a"></path><path d="M519 540L581.7 491.8L472.7 497.8Z" fill="#00346a" stroke="#00346a"></path><path d="M472.7 497.8L581.7 491.8L475 405.7Z" fill="#002855" stroke="#002855"></path><path d="M617 375.7L693.7 405.6L659 316.6Z" fill="#004c98" stroke="#004c98"></path><path d="M274 163.4L254 152.2L241.3 195.3Z" fill="#002e60" stroke="#002e60"></path><path d="M305.3 145.3L254 152.2L274 163.4Z" fill="#00346a" stroke="#00346a"></path><path d="M201.3 269.5L289.3 300.5L253.7 240.5Z" fill="#004c98" stroke="#004c98"></path><path d="M586.7 29.2L530.7 53.1L534.3 130.2Z" fill="#035fbc" stroke="#035fbc"></path><path d="M534.3 130.2L530.7 53.1L458.7 159.2Z" fill="#00468c" stroke="#00468c"></path><path d="M305.3 145.3L243.7 99.3L254 152.2Z" fill="#004081" stroke="#004081"></path><path d="M544 24.2L530.7 53.1L586.7 29.2Z" fill="#004081" stroke="#004081"></path><path d="M376.7 540L455.3 509.8L369 465.7Z" fill="#002e60" stroke="#002e60"></path><path d="M455.3 509.8L459.3 540L472.7 497.8Z" fill="#003a75" stroke="#003a75"></path><path d="M711.3 256.5L647.3 280.6L659 312.5Z" fill="#00346a" stroke="#00346a"></path><path d="M711.3 256.5L694.3 214.4L647.3 280.6Z" fill="#0153a4" stroke="#0153a4"></path><path d="M635.3 156.2L663.7 121.3L629.7 147.4Z" fill="#00468c" stroke="#00468c"></path><path d="M184.3 191.4L201.3 269.5L241.3 195.3Z" fill="#0153a4" stroke="#0153a4"></path><path d="M241.3 195.3L201.3 269.5L253.7 240.5Z" fill="#0159b0" stroke="#0159b0"></path><path d="M256.3 461.9L267.7 466.9L257.3 417.6Z" fill="#002855" stroke="#002855"></path><path d="M257.3 417.6L267.7 466.9L293 406.8Z" fill="#0466c8" stroke="#0466c8"></path><path d="M267.7 466.9L357.3 527.9L369 465.7Z" fill="#004c98" stroke="#004c98"></path><path d="M459.3 540L519 540L472.7 497.8Z" fill="#002855" stroke="#002855"></path><path d="M720 305.5L711.3 256.5L659 312.5Z" fill="#0153a4" stroke="#0153a4"></path><path d="M720 305.5L659 312.5L659 316.6Z" fill="#0159b0" stroke="#0159b0"></path><path d="M357.3 527.9L376.7 540L369 465.7Z" fill="#004c98" stroke="#004c98"></path><path d="M222.3 430.8L256.3 461.9L257.3 417.6Z" fill="#003a75" stroke="#003a75"></path><path d="M341 540L362.3 540L357.3 527.9Z" fill="#0159b0" stroke="#0159b0"></path><path d="M341 540L357.3 527.9L267.7 466.9Z" fill="#0466c8" stroke="#0466c8"></path><path d="M357.3 527.9L362.3 540L376.7 540Z" fill="#002e60" stroke="#002e60"></path><path d="M625.3 504.8L693.7 405.6L617 375.7Z" fill="#002e60" stroke="#002e60"></path><path d="M693.7 405.6L720 305.5L659 316.6Z" fill="#002e60" stroke="#002e60"></path><path d="M690.7 127.2L663.7 121.3L635.3 156.2Z" fill="#0159b0" stroke="#0159b0"></path><path d="M629.7 147.4L663.7 121.3L617 139.2Z" fill="#0159b0" stroke="#0159b0"></path><path d="M690.7 127.2L635.3 156.2L694.3 214.4Z" fill="#002e60" stroke="#002e60"></path><path d="M208 327.5L222.3 430.8L262.7 357.5Z" fill="#003a75" stroke="#003a75"></path><path d="M720 305.5L722.7 259.4L711.3 256.5Z" fill="#0466c8" stroke="#0466c8"></path><path d="M711.3 256.5L731.3 212.3L694.3 214.4Z" fill="#004081" stroke="#004081"></path><path d="M519 540L563.7 540L581.7 491.8Z" fill="#004c98" stroke="#004c98"></path><path d="M581.7 491.8L625.3 504.8L617 375.7Z" fill="#002e60" stroke="#002e60"></path><path d="M260 490.9L341 540L267.7 466.9Z" fill="#0159b0" stroke="#0159b0"></path><path d="M260 490.9L267.7 466.9L256.3 461.9Z" fill="#002e60" stroke="#002e60"></path><path d="M563.7 540L625.3 504.8L581.7 491.8Z" fill="#0466c8" stroke="#0466c8"></path><path d="M203.7 490.8L260 490.9L256.3 461.9Z" fill="#00468c" stroke="#00468c"></path><path d="M459.3 540L525.3 559.9L519 540Z" fill="#004c98" stroke="#004c98"></path><path d="M519 540L525.3 559.9L563.7 540Z" fill="#004081" stroke="#004081"></path><path d="M376.7 540L525.3 559.9L459.3 540Z" fill="#003a75" stroke="#003a75"></path><path d="M362.3 540L525.3 559.9L376.7 540Z" fill="#00468c" stroke="#00468c"></path><path d="M341 540L525.3 559.9L362.3 540Z" fill="#004c98" stroke="#004c98"></path><path d="M586.7 29.2L534.3 130.2L617 139.2Z" fill="#0466c8" stroke="#0466c8"></path><path d="M335.3 15.1L305.3 145.3L335.3 151.2Z" fill="#0153a4" stroke="#0153a4"></path><path d="M440.7 0L458.7 159.2L530.7 53.1Z" fill="#004c98" stroke="#004c98"></path><path d="M195.7 145.4L184.3 191.4L241.3 195.3Z" fill="#035fbc" stroke="#035fbc"></path><path d="M201.3 269.5L173.7 337.6L208 327.5Z" fill="#00346a" stroke="#00346a"></path><path d="M208 327.5L173.7 337.6L222.3 430.8Z" fill="#00468c" stroke="#00468c"></path><path d="M143 314.7L173.7 337.6L201.3 269.5Z" fill="#004c98" stroke="#004c98"></path><path d="M195.7 145.4L241.3 195.3L254 152.2Z" fill="#002855" stroke="#002855"></path><path d="M721 436.8L710.7 418.7L693.7 405.6Z" fill="#00468c" stroke="#00468c"></path><path d="M693.7 405.6L757.3 371.7L720 305.5Z" fill="#004c98" stroke="#004c98"></path><path d="M731.3 212.3L690.7 127.2L694.3 214.4Z" fill="#0153a4" stroke="#0153a4"></path><path d="M663.7 121.3L586.7 29.2L617 139.2Z" fill="#004081" stroke="#004081"></path><path d="M760.3 225.5L731.3 212.3L722.7 259.4Z" fill="#00468c" stroke="#00468c"></path><path d="M722.7 259.4L731.3 212.3L711.3 256.5Z" fill="#0153a4" stroke="#0153a4"></path><path d="M755.7 285.5L722.7 259.4L720 305.5Z" fill="#004081" stroke="#004081"></path><path d="M494 1.1L440.7 0L530.7 53.1Z" fill="#004c98" stroke="#004c98"></path><path d="M522 0L494 1.1L530.7 53.1Z" fill="#00346a" stroke="#00346a"></path><path d="M630 0L586.7 29.2L663.7 121.3Z" fill="#002e60" stroke="#002e60"></path><path d="M544 24.2L522 0L530.7 53.1Z" fill="#002e60" stroke="#002e60"></path><path d="M207.7 113.1L195.7 145.4L254 152.2Z" fill="#0153a4" stroke="#0153a4"></path><path d="M553.3 0L522 0L544 24.2Z" fill="#004c98" stroke="#004c98"></path><path d="M565.3 -32.9L393.7 -13.9L440.7 0Z" fill="#00468c" stroke="#00468c"></path><path d="M662 540L657.7 507.9L625.3 504.8Z" fill="#0466c8" stroke="#0466c8"></path><path d="M625.3 504.8L657.7 507.9L693.7 405.6Z" fill="#00346a" stroke="#00346a"></path><path d="M662 540L625.3 504.8L563.7 540Z" fill="#004081" stroke="#004081"></path><path d="M376.3 0L354 8.1L393 172.3Z" fill="#0466c8" stroke="#0466c8"></path><path d="M354 8.1L335.3 15.1L335.3 151.2Z" fill="#00468c" stroke="#00468c"></path><path d="M440.7 0L376.3 0L393 172.3Z" fill="#0466c8" stroke="#0466c8"></path><path d="M757.3 371.7L755.7 285.5L720 305.5Z" fill="#0153a4" stroke="#0153a4"></path><path d="M171.3 71.2L207.7 113.1L243.7 99.3Z" fill="#00468c" stroke="#00468c"></path><path d="M243.7 99.3L207.7 113.1L254 152.2Z" fill="#00468c" stroke="#00468c"></path><path d="M657.7 507.9L721 436.8L693.7 405.6Z" fill="#004c98" stroke="#004c98"></path><path d="M757 377.6L757.3 371.7L693.7 405.6Z" fill="#002e60" stroke="#002e60"></path><path d="M554.7 0L553.3 0L544 24.2Z" fill="#002855" stroke="#002855"></path><path d="M586.7 29.2L554.7 0L544 24.2Z" fill="#00468c" stroke="#00468c"></path><path d="M565.3 -32.9L440.7 0L494 1.1Z" fill="#002e60" stroke="#002e60"></path><path d="M440.7 0L393.7 -13.9L376.3 0Z" fill="#004081" stroke="#004081"></path><path d="M376.3 0L329 0L354 8.1Z" fill="#004c98" stroke="#004c98"></path><path d="M354 8.1L329 0L335.3 15.1Z" fill="#0159b0" stroke="#0159b0"></path><path d="M565.3 -32.9L494 1.1L522 0Z" fill="#0153a4" stroke="#0153a4"></path><path d="M565.3 -32.9L522 0L553.3 0Z" fill="#035fbc" stroke="#035fbc"></path><path d="M100 229.5L143 314.7L201.3 269.5Z" fill="#0159b0" stroke="#0159b0"></path><path d="M158.7 445.8L203.7 490.8L222.3 430.8Z" fill="#004081" stroke="#004081"></path><path d="M222.3 430.8L203.7 490.8L256.3 461.9Z" fill="#002e60" stroke="#002e60"></path><path d="M139 200.3L201.3 269.5L184.3 191.4Z" fill="#004c98" stroke="#004c98"></path><path d="M755.7 285.5L760.3 225.5L722.7 259.4Z" fill="#004c98" stroke="#004c98"></path><path d="M731.3 212.3L758 119.3L690.7 127.2Z" fill="#00468c" stroke="#00468c"></path><path d="M757 377.6L693.7 405.6L710.7 418.7Z" fill="#002855" stroke="#002855"></path><path d="M755.7 285.5L800 257.5L760.3 225.5Z" fill="#0466c8" stroke="#0466c8"></path><path d="M393.7 -13.9L329 0L376.3 0Z" fill="#004c98" stroke="#004c98"></path><path d="M335.3 15.1L222.7 27.2L243.7 99.3Z" fill="#035fbc" stroke="#035fbc"></path><path d="M755.3 420.9L757 377.6L710.7 418.7Z" fill="#0466c8" stroke="#0466c8"></path><path d="M158.7 445.8L222.3 430.8L173.7 337.6Z" fill="#003a75" stroke="#003a75"></path><path d="M260 490.9L251.7 540L341 540Z" fill="#0159b0" stroke="#0159b0"></path><path d="M203.7 490.8L251.7 540L260 490.9Z" fill="#035fbc" stroke="#035fbc"></path><path d="M341 540L251.7 540L525.3 559.9Z" fill="#004081" stroke="#004081"></path><path d="M525.3 559.9L662 540L563.7 540Z" fill="#00346a" stroke="#00346a"></path><path d="M657.7 507.9L689 534.9L721 436.8Z" fill="#002e60" stroke="#002e60"></path><path d="M721 436.8L755.3 420.9L710.7 418.7Z" fill="#035fbc" stroke="#035fbc"></path><path d="M144.7 156.4L184.3 191.4L195.7 145.4Z" fill="#0466c8" stroke="#0466c8"></path><path d="M144.7 156.4L139 200.3L184.3 191.4Z" fill="#004c98" stroke="#004c98"></path><path d="M95 303.6L127.3 324.5L143 314.7Z" fill="#002e60" stroke="#002e60"></path><path d="M143 314.7L127.3 324.5L173.7 337.6Z" fill="#00346a" stroke="#00346a"></path><path d="M795.7 474.9L755.3 420.9L721 436.8Z" fill="#0466c8" stroke="#0466c8"></path><path d="M812 271.4L755.7 285.5L757.3 371.7Z" fill="#003a75" stroke="#003a75"></path><path d="M171.3 71.2L161 135.4L207.7 113.1Z" fill="#004081" stroke="#004081"></path><path d="M207.7 113.1L161 135.4L195.7 145.4Z" fill="#00346a" stroke="#00346a"></path><path d="M113 408.9L158.7 445.8L173.7 337.6Z" fill="#004081" stroke="#004081"></path><path d="M203.7 490.8L210.3 540L251.7 540Z" fill="#002855" stroke="#002855"></path><path d="M161 135.4L144.7 156.4L195.7 145.4Z" fill="#003a75" stroke="#003a75"></path><path d="M586.7 29.2L565.3 -32.9L554.7 0Z" fill="#0159b0" stroke="#0159b0"></path><path d="M554.7 0L565.3 -32.9L553.3 0Z" fill="#002855" stroke="#002855"></path><path d="M674.7 0L630 0L663.7 121.3Z" fill="#002855" stroke="#002855"></path><path d="M730.3 67.1L663.7 121.3L690.7 127.2Z" fill="#0153a4" stroke="#0153a4"></path><path d="M662 540L689 534.9L657.7 507.9Z" fill="#035fbc" stroke="#035fbc"></path><path d="M630 0L565.3 -32.9L586.7 29.2Z" fill="#00468c" stroke="#00468c"></path><path d="M846.7 567.9L689.3 540L662 540Z" fill="#0466c8" stroke="#0466c8"></path><path d="M662 540L689.3 540L689 534.9Z" fill="#0466c8" stroke="#0466c8"></path><path d="M689 534.9L746.7 540L721 436.8Z" fill="#035fbc" stroke="#035fbc"></path><path d="M812 271.4L800 257.5L755.7 285.5Z" fill="#004081" stroke="#004081"></path><path d="M806.7 139.3L758 119.3L731.3 212.3Z" fill="#002e60" stroke="#002e60"></path><path d="M812 271.4L838 419.9L827.7 267.5Z" fill="#035fbc" stroke="#035fbc"></path><path d="M161 540L210.3 540L203.7 490.8Z" fill="#035fbc" stroke="#035fbc"></path><path d="M251.7 540L210.3 540L525.3 559.9Z" fill="#00468c" stroke="#00468c"></path><path d="M806.7 139.3L731.3 212.3L760.3 225.5Z" fill="#004081" stroke="#004081"></path><path d="M329 0L222.7 27.2L335.3 15.1Z" fill="#004c98" stroke="#004c98"></path><path d="M161 135.4L119 133.2L144.7 156.4Z" fill="#0159b0" stroke="#0159b0"></path><path d="M95 303.6L105.3 355.6L127.3 324.5Z" fill="#0466c8" stroke="#0466c8"></path><path d="M127.3 324.5L105.3 355.6L173.7 337.6Z" fill="#004c98" stroke="#004c98"></path><path d="M158.7 445.8L161 540L203.7 490.8Z" fill="#0159b0" stroke="#0159b0"></path><path d="M100 229.5L201.3 269.5L139 200.3Z" fill="#00346a" stroke="#00346a"></path><path d="M762 111.2L758.7 110.1L758 119.3Z" fill="#004081" stroke="#004081"></path><path d="M758 119.3L758.7 110.1L690.7 127.2Z" fill="#003a75" stroke="#003a75"></path><path d="M758.7 110.1L730.3 67.1L690.7 127.2Z" fill="#0159b0" stroke="#0159b0"></path><path d="M806.7 139.3L762 111.2L758 119.3Z" fill="#004c98" stroke="#004c98"></path><path d="M758.7 110.1L776.3 70.3L730.3 67.1Z" fill="#004c98" stroke="#004c98"></path><path d="M222.7 27.2L171.3 71.2L243.7 99.3Z" fill="#002855" stroke="#002855"></path><path d="M119 133.2L139 200.3L144.7 156.4Z" fill="#035fbc" stroke="#035fbc"></path><path d="M57.7 210.3L100 229.5L139 200.3Z" fill="#002855" stroke="#002855"></path><path d="M89.7 264.5L95 303.6L143 314.7Z" fill="#00468c" stroke="#00468c"></path><path d="M812 271.4L757.3 371.7L838 419.9Z" fill="#0159b0" stroke="#0159b0"></path><path d="M800 257.5L806.7 139.3L760.3 225.5Z" fill="#004081" stroke="#004081"></path><path d="M108 477.8L113 408.9L69.7 452.9Z" fill="#004081" stroke="#004081"></path><path d="M105.3 355.6L113 408.9L173.7 337.6Z" fill="#00346a" stroke="#00346a"></path><path d="M100 229.5L89.7 264.5L143 314.7Z" fill="#003a75" stroke="#003a75"></path><path d="M730.3 67.1L674.7 0L663.7 121.3Z" fill="#00468c" stroke="#00468c"></path><path d="M630 0L713 -27.9L565.3 -32.9Z" fill="#0466c8" stroke="#0466c8"></path><path d="M329 0L228.7 0L222.7 27.2Z" fill="#003a75" stroke="#003a75"></path><path d="M222.7 27.2L172 8.1L171.3 71.2Z" fill="#0159b0" stroke="#0159b0"></path><path d="M393.7 -13.9L228.7 0L329 0Z" fill="#00468c" stroke="#00468c"></path><path d="M200 0L228.7 0L173.3 -5.9Z" fill="#0153a4" stroke="#0153a4"></path><path d="M127.7 54.2L119 133.2L171.3 71.2Z" fill="#035fbc" stroke="#035fbc"></path><path d="M171.3 71.2L119 133.2L161 135.4Z" fill="#0466c8" stroke="#0466c8"></path><path d="M100 229.5L57.7 210.3L89.7 264.5Z" fill="#004081" stroke="#004081"></path><path d="M838 419.9L757.3 371.7L757 377.6Z" fill="#00346a" stroke="#00346a"></path><path d="M812 271.4L827.7 267.5L800 257.5Z" fill="#035fbc" stroke="#035fbc"></path><path d="M674.7 0L713 -27.9L630 0Z" fill="#003a75" stroke="#003a75"></path><path d="M730.3 67.1L702.3 0L674.7 0Z" fill="#002855" stroke="#002855"></path><path d="M776.3 70.3L702.3 0L730.3 67.1Z" fill="#004c98" stroke="#004c98"></path><path d="M865 259.5L806.7 139.3L800 257.5Z" fill="#003a75" stroke="#003a75"></path><path d="M762 111.2L776.3 70.3L758.7 110.1Z" fill="#002855" stroke="#002855"></path><path d="M108 477.8L161 540L158.7 445.8Z" fill="#003a75" stroke="#003a75"></path><path d="M210.3 540L161 540L525.3 559.9Z" fill="#0159b0" stroke="#0159b0"></path><path d="M172.3 0L200 0L173.3 -5.9Z" fill="#0153a4" stroke="#0153a4"></path><path d="M228.7 0L200 0L222.7 27.2Z" fill="#0159b0" stroke="#0159b0"></path><path d="M689.3 540L746.7 540L689 534.9Z" fill="#004c98" stroke="#004c98"></path><path d="M755.3 420.9L838 419.9L757 377.6Z" fill="#002e60" stroke="#002e60"></path><path d="M846.7 567.9L746.7 540L689.3 540Z" fill="#002e60" stroke="#002e60"></path><path d="M746.7 540L795.7 474.9L721 436.8Z" fill="#0466c8" stroke="#0466c8"></path><path d="M814.3 129.4L776.3 70.3L762 111.2Z" fill="#0466c8" stroke="#0466c8"></path><path d="M50.7 365.7L113 408.9L105.3 355.6Z" fill="#00468c" stroke="#00468c"></path><path d="M113 408.9L108 477.8L158.7 445.8Z" fill="#004c98" stroke="#004c98"></path><path d="M50.7 365.7L105.3 355.6L95 303.6Z" fill="#002e60" stroke="#002e60"></path><path d="M929.7 162.3L814.3 129.4L806.7 139.3Z" fill="#0466c8" stroke="#0466c8"></path><path d="M806.7 139.3L814.3 129.4L762 111.2Z" fill="#00346a" stroke="#00346a"></path><path d="M200 0L172 8.1L222.7 27.2Z" fill="#004c98" stroke="#004c98"></path><path d="M172 8.1L127.7 54.2L171.3 71.2Z" fill="#0153a4" stroke="#0153a4"></path><path d="M119 133.2L57.7 210.3L139 200.3Z" fill="#035fbc" stroke="#035fbc"></path><path d="M72.7 107.1L57.7 210.3L119 133.2Z" fill="#0466c8" stroke="#0466c8"></path><path d="M37.7 363.5L50.7 365.7L24.3 306.5Z" fill="#035fbc" stroke="#035fbc"></path><path d="M200 0L172.3 0L172 8.1Z" fill="#0153a4" stroke="#0153a4"></path><path d="M172 8.1L101.7 0L127.7 54.2Z" fill="#004081" stroke="#004081"></path><path d="M173.3 -5.9L228.7 0L393.7 -13.9Z" fill="#00346a" stroke="#00346a"></path><path d="M844 449.7L838 419.9L795.7 474.9Z" fill="#004081" stroke="#004081"></path><path d="M795.7 474.9L838 419.9L755.3 420.9Z" fill="#0153a4" stroke="#0153a4"></path><path d="M565.3 -32.9L173.3 -5.9L393.7 -13.9Z" fill="#0159b0" stroke="#0159b0"></path><path d="M172.3 0L101.7 0L172 8.1Z" fill="#004081" stroke="#004081"></path><path d="M50.7 365.7L95 303.6L24.3 306.5Z" fill="#00468c" stroke="#00468c"></path><path d="M702.3 0L713 -27.9L674.7 0Z" fill="#0159b0" stroke="#0159b0"></path><path d="M776.3 70.3L713 -27.9L702.3 0Z" fill="#0466c8" stroke="#0466c8"></path><path d="M916.3 312.5L865 259.5L827.7 267.5Z" fill="#0159b0" stroke="#0159b0"></path><path d="M827.7 267.5L865 259.5L800 257.5Z" fill="#00346a" stroke="#00346a"></path><path d="M38.3 440.8L69.7 452.9L113 408.9Z" fill="#00468c" stroke="#00468c"></path><path d="M108 477.8L84.3 540L161 540Z" fill="#035fbc" stroke="#035fbc"></path><path d="M814.7 519.8L844 449.7L795.7 474.9Z" fill="#004081" stroke="#004081"></path><path d="M916.3 312.5L904.7 269.5L865 259.5Z" fill="#0153a4" stroke="#0153a4"></path><path d="M24.3 306.5L95 303.6L89.7 264.5Z" fill="#0466c8" stroke="#0466c8"></path><path d="M50.7 365.7L38.3 440.8L113 408.9Z" fill="#035fbc" stroke="#035fbc"></path><path d="M84.3 22.1L72.7 107.1L127.7 54.2Z" fill="#00346a" stroke="#00346a"></path><path d="M127.7 54.2L72.7 107.1L119 133.2Z" fill="#00468c" stroke="#00468c"></path><path d="M844 449.7L851 437.8L838 419.9Z" fill="#0159b0" stroke="#0159b0"></path><path d="M746.7 540L814.7 519.8L795.7 474.9Z" fill="#004081" stroke="#004081"></path><path d="M844 449.7L879.3 424.8L851 437.8Z" fill="#004081" stroke="#004081"></path><path d="M0 229.4L24.3 306.5L89.7 264.5Z" fill="#00346a" stroke="#00346a"></path><path d="M0 305.5L24.3 306.5L0 229.4Z" fill="#00346a" stroke="#00346a"></path><path d="M37.7 363.5L38.3 440.8L50.7 365.7Z" fill="#002855" stroke="#002855"></path><path d="M81.7 540L84.3 540L108 477.8Z" fill="#0153a4" stroke="#0153a4"></path><path d="M0 387.8L38.3 440.8L37.7 363.5Z" fill="#035fbc" stroke="#035fbc"></path><path d="M81.7 540L108 477.8L69.7 452.9Z" fill="#0466c8" stroke="#0466c8"></path><path d="M161 540L84.3 540L525.3 559.9Z" fill="#0153a4" stroke="#0153a4"></path><path d="M934.3 471.7L879.3 424.8L844 449.7Z" fill="#035fbc" stroke="#035fbc"></path><path d="M851 437.8L879.3 424.8L838 419.9Z" fill="#0159b0" stroke="#0159b0"></path><path d="M0 486.9L81.7 540L69.7 452.9Z" fill="#004081" stroke="#004081"></path><path d="M84.3 540L81.7 540L525.3 559.9Z" fill="#035fbc" stroke="#035fbc"></path><path d="M916.3 312.5L827.7 267.5L838 419.9Z" fill="#035fbc" stroke="#035fbc"></path><path d="M923.7 132.4L872.7 89.2L814.3 129.4Z" fill="#0153a4" stroke="#0153a4"></path><path d="M814.3 129.4L872.7 89.2L776.3 70.3Z" fill="#00468c" stroke="#00468c"></path><path d="M0 229.4L89.7 264.5L57.7 210.3Z" fill="#0159b0" stroke="#0159b0"></path><path d="M24.3 306.5L0 354.6L37.7 363.5Z" fill="#004c98" stroke="#004c98"></path><path d="M0 305.5L0 308.5L24.3 306.5Z" fill="#004081" stroke="#004081"></path><path d="M173.3 -5.9L101.7 0L172.3 0Z" fill="#002855" stroke="#002855"></path><path d="M7.3 152.3L0 229.4L57.7 210.3Z" fill="#0153a4" stroke="#0153a4"></path><path d="M101.7 0L84.3 22.1L127.7 54.2Z" fill="#0159b0" stroke="#0159b0"></path><path d="M7.3 152.3L57.7 210.3L72.7 107.1Z" fill="#0153a4" stroke="#0153a4"></path><path d="M0 308.5L0 354.6L24.3 306.5Z" fill="#035fbc" stroke="#035fbc"></path><path d="M38.3 440.8L0 486.9L69.7 452.9Z" fill="#002e60" stroke="#002e60"></path><path d="M846.7 567.9L843 540L814.7 519.8Z" fill="#035fbc" stroke="#035fbc"></path><path d="M814.7 519.8L843 540L844 449.7Z" fill="#0466c8" stroke="#0466c8"></path><path d="M846.7 567.9L814.7 519.8L746.7 540Z" fill="#004c98" stroke="#004c98"></path><path d="M933.3 308.6L960 401.7L960 313.6Z" fill="#00468c" stroke="#00468c"></path><path d="M879.3 424.8L916.3 312.5L838 419.9Z" fill="#002855" stroke="#002855"></path><path d="M0 354.6L0 387.8L37.7 363.5Z" fill="#003a75" stroke="#003a75"></path><path d="M929.7 162.3L806.7 139.3L865 259.5Z" fill="#002e60" stroke="#002e60"></path><path d="M776.3 70.3L829 -4.9L713 -27.9Z" fill="#00346a" stroke="#00346a"></path><path d="M920.7 242.5L865 259.5L904.7 269.5Z" fill="#002855" stroke="#002855"></path><path d="M3.3 152.4L7.3 152.3L0 150.2Z" fill="#035fbc" stroke="#035fbc"></path><path d="M923.3 268.5L920.7 242.5L904.7 269.5Z" fill="#0466c8" stroke="#0466c8"></path><path d="M916.3 312.5L923.3 268.5L904.7 269.5Z" fill="#00468c" stroke="#00468c"></path><path d="M0 150.2L7.3 152.3L0 83.1Z" fill="#002855" stroke="#002855"></path><path d="M7.3 152.3L3.3 152.4L0 229.4Z" fill="#00468c" stroke="#00468c"></path><path d="M0 83.1L7.3 152.3L72.7 107.1Z" fill="#004c98" stroke="#004c98"></path><path d="M3.3 152.4L0 150.2L0 229.4Z" fill="#004081" stroke="#004081"></path><path d="M101.7 0L64.3 16.2L84.3 22.1Z" fill="#00346a" stroke="#00346a"></path><path d="M84.3 22.1L64.3 16.2L72.7 107.1Z" fill="#0466c8" stroke="#0466c8"></path><path d="M869.3 37.1L831 0L776.3 70.3Z" fill="#002855" stroke="#002855"></path><path d="M875.7 21.1L829 -4.9L831 0Z" fill="#0153a4" stroke="#0153a4"></path><path d="M831 0L829 -4.9L776.3 70.3Z" fill="#0466c8" stroke="#0466c8"></path><path d="M960 270.5L933.3 308.6L960 313.6Z" fill="#00468c" stroke="#00468c"></path><path d="M916.3 312.5L933.3 308.6L923.3 268.5Z" fill="#0159b0" stroke="#0159b0"></path><path d="M923.3 268.5L960 254.5L920.7 242.5Z" fill="#004c98" stroke="#004c98"></path><path d="M525.3 559.9L846.7 567.9L662 540Z" fill="#0159b0" stroke="#0159b0"></path><path d="M843 540L934.3 471.7L844 449.7Z" fill="#0466c8" stroke="#0466c8"></path><path d="M0 387.8L0 461.7L38.3 440.8Z" fill="#0466c8" stroke="#0466c8"></path><path d="M933.3 62.2L869.3 37.1L872.7 89.2Z" fill="#004c98" stroke="#004c98"></path><path d="M872.7 89.2L869.3 37.1L776.3 70.3Z" fill="#0159b0" stroke="#0159b0"></path><path d="M0 354.6L-28.7 364.7L0 387.8Z" fill="#004081" stroke="#004081"></path><path d="M0 387.8L-28.7 364.7L0 461.7Z" fill="#002e60" stroke="#002e60"></path><path d="M0 308.5L-28.7 364.7L0 354.6Z" fill="#002e60" stroke="#002e60"></path><path d="M0 305.5L-28.7 364.7L0 308.5Z" fill="#00468c" stroke="#00468c"></path><path d="M0 229.4L-28.7 364.7L0 305.5Z" fill="#0159b0" stroke="#0159b0"></path><path d="M0 150.2L-28.7 364.7L0 229.4Z" fill="#003a75" stroke="#003a75"></path><path d="M960 225.3L929.7 162.3L920.7 242.5Z" fill="#002e60" stroke="#002e60"></path><path d="M920.7 242.5L929.7 162.3L865 259.5Z" fill="#00468c" stroke="#00468c"></path><path d="M-28.7 364.7L0 486.9L0 461.7Z" fill="#002e60" stroke="#002e60"></path><path d="M0 461.7L0 486.9L38.3 440.8Z" fill="#002855" stroke="#002855"></path><path d="M929.7 162.3L923.7 132.4L814.3 129.4Z" fill="#0153a4" stroke="#0153a4"></path><path d="M173.3 -5.9L48.3 0L101.7 0Z" fill="#002e60" stroke="#002e60"></path><path d="M101.7 0L48.3 0L64.3 16.2Z" fill="#00468c" stroke="#00468c"></path><path d="M0 80.3L0 83.1L72.7 107.1Z" fill="#002855" stroke="#002855"></path><path d="M0 0L48.3 0L173.3 -5.9Z" fill="#0153a4" stroke="#0153a4"></path><path d="M0 80.3L72.7 107.1L64.3 16.2Z" fill="#0153a4" stroke="#0153a4"></path><path d="M0 150.2L0 83.1L-28.7 364.7Z" fill="#0466c8" stroke="#0466c8"></path><path d="M0 0L0 80.3L64.3 16.2Z" fill="#003a75" stroke="#003a75"></path><path d="M0 83.1L0 80.3L-28.7 364.7Z" fill="#00346a" stroke="#00346a"></path><path d="M933.3 62.2L875.7 21.1L869.3 37.1Z" fill="#0466c8" stroke="#0466c8"></path><path d="M869.3 37.1L875.7 21.1L831 0Z" fill="#00468c" stroke="#00468c"></path><path d="M960 270.5L958.7 268.6L923.3 268.5Z" fill="#002e60" stroke="#002e60"></path><path d="M929.7 162.3L960 173.2L923.7 132.4Z" fill="#0466c8" stroke="#0466c8"></path><path d="M960 270.5L923.3 268.5L933.3 308.6Z" fill="#00468c" stroke="#00468c"></path><path d="M933.3 308.6L916.3 312.5L960 401.7Z" fill="#002855" stroke="#002855"></path><path d="M958.7 268.6L960 254.5L923.3 268.5Z" fill="#00468c" stroke="#00468c"></path><path d="M960 401.7L916.3 312.5L879.3 424.8Z" fill="#00468c" stroke="#00468c"></path><path d="M960 270.5L960 254.5L958.7 268.6Z" fill="#035fbc" stroke="#035fbc"></path><path d="M960 254.5L960 237.4L920.7 242.5Z" fill="#00346a" stroke="#00346a"></path><path d="M960 237.4L960 225.3L920.7 242.5Z" fill="#00346a" stroke="#00346a"></path><path d="M-28.7 364.7L-0.7 524.9L0 486.9Z" fill="#002e60" stroke="#002e60"></path><path d="M0 486.9L-0.7 524.9L81.7 540Z" fill="#0153a4" stroke="#0153a4"></path><path d="M926.3 540L934.3 471.7L843 540Z" fill="#004c98" stroke="#004c98"></path><path d="M-28.7 364.7L0 540L-0.7 524.9Z" fill="#0466c8" stroke="#0466c8"></path><path d="M-0.7 524.9L0 540L81.7 540Z" fill="#002e60" stroke="#002e60"></path><path d="M81.7 540L0 540L525.3 559.9Z" fill="#002855" stroke="#002855"></path><path d="M934.3 471.7L960 401.7L879.3 424.8Z" fill="#003a75" stroke="#003a75"></path><path d="M960 225.3L960 173.2L929.7 162.3Z" fill="#0159b0" stroke="#0159b0"></path><path d="M923.7 132.4L933.3 62.2L872.7 89.2Z" fill="#00468c" stroke="#00468c"></path><path d="M960 73.1L933.3 62.2L923.7 132.4Z" fill="#002855" stroke="#002855"></path><path d="M925.3 550.9L926.3 540L843 540Z" fill="#002e60" stroke="#002e60"></path><path d="M934.3 471.7L972.7 449.8L960 401.7Z" fill="#003a75" stroke="#003a75"></path><path d="M565.3 -32.9L0 0L173.3 -5.9Z" fill="#0466c8" stroke="#0466c8"></path><path d="M48.3 0L0 0L64.3 16.2Z" fill="#004081" stroke="#004081"></path><path d="M0 80.3L0 0L-28.7 364.7Z" fill="#035fbc" stroke="#035fbc"></path><path d="M846.7 567.9L925.3 550.9L843 540Z" fill="#002e60" stroke="#002e60"></path><path d="M926.3 540L960 475.8L934.3 471.7Z" fill="#0466c8" stroke="#0466c8"></path><path d="M960 540L960 475.8L926.3 540Z" fill="#0159b0" stroke="#0159b0"></path><path d="M933.3 62.2L911.7 0L875.7 21.1Z" fill="#0466c8" stroke="#0466c8"></path><path d="M875.7 21.1L911.7 0L829 -4.9Z" fill="#0466c8" stroke="#0466c8"></path><path d="M829 -4.9L911.7 0L713 -27.9Z" fill="#035fbc" stroke="#035fbc"></path><path d="M960 475.8L972.7 449.8L934.3 471.7Z" fill="#002e60" stroke="#002e60"></path><path d="M960 401.7L986.7 437.7L960 313.6Z" fill="#002855" stroke="#002855"></path><path d="M960 313.6L986.7 437.7L960 270.5Z" fill="#003a75" stroke="#003a75"></path><path d="M960 270.5L986.7 437.7L960 254.5Z" fill="#00468c" stroke="#00468c"></path><path d="M960 254.5L986.7 437.7L960 237.4Z" fill="#002e60" stroke="#002e60"></path><path d="M960 237.4L986.7 437.7L960 225.3Z" fill="#00468c" stroke="#00468c"></path><path d="M960 225.3L986.7 437.7L960 173.2Z" fill="#003a75" stroke="#003a75"></path><path d="M986.7 437.7L972.7 449.8L960 475.8Z" fill="#004081" stroke="#004081"></path><path d="M933.3 62.2L917.3 0L911.7 0Z" fill="#035fbc" stroke="#035fbc"></path><path d="M911.7 0L917.3 0L713 -27.9Z" fill="#004081" stroke="#004081"></path><path d="M960 173.2L960 73.1L923.7 132.4Z" fill="#0159b0" stroke="#0159b0"></path><path d="M933.3 62.2L960 0L917.3 0Z" fill="#004081" stroke="#004081"></path><path d="M986.7 437.7L960 73.1L960 173.2Z" fill="#00468c" stroke="#00468c"></path><path d="M984.7 540L986.7 437.7L960 475.8Z" fill="#00346a" stroke="#00346a"></path><path d="M972.7 449.8L986.7 437.7L960 401.7Z" fill="#002e60" stroke="#002e60"></path><path d="M925.3 550.9L960 540L926.3 540Z" fill="#003a75" stroke="#003a75"></path><path d="M846.7 567.9L960 561.9L925.3 550.9Z" fill="#004c98" stroke="#004c98"></path><path d="M925.3 550.9L960 561.9L960 540Z" fill="#004c98" stroke="#004c98"></path><path d="M960 540L984.7 540L960 475.8Z" fill="#004081" stroke="#004081"></path><path d="M986.7 437.7L960 0L960 73.1Z" fill="#002855" stroke="#002855"></path><path d="M960 73.1L960 0L933.3 62.2Z" fill="#0153a4" stroke="#0153a4"></path><path d="M917.3 0L960 0L713 -27.9Z" fill="#002e60" stroke="#002e60"></path><path d="M960 561.9L984.7 540L960 540Z" fill="#0159b0" stroke="#0159b0"></path></g></svg>